<svg width="600" height="120" version="1.1" viewBox="0 0 80 16" xmlns="http://www.w3.org/2000/svg">
  <defs>
    <path id="restunts" d="m3.2 12q-.069.014-.12-.096-.055-.12-.12-.23h.15q-.096-.3-.055-.55.055-.26.12-.5.069-.25.11-.47.055-.23-.041-.48.069.041.096-.028.041-.083.055-.19.028-.12.014-.25 0-.14-.014-.22.18-.43.28-.88.11-.45.19-.9.083-.45.18-.87.11-.43.28-.8.19-.028.4.055.22.069.29.18.43-.33.76-.8.33-.47.66-.91.34-.45.77-.8.43-.34 1.1-.41.33.23.74.51.41.26.68.66.11.069.21.15.11.069.22.14v.21q.19.18.32.43.14.23.23.51.11.26.21.54.096.28.22.51-.028.083-.028.15.014.055.028.12.028.055.041.14.014.069.014.18-.055.73-.48 1.2-.41.44-1 .73-.59.28-1.3.48-.68.19-1.2.43 0 .055.055.055.069 0 .041.083.41.25.63.4.23.15.43.26.21.096.44.17.25.069.68.17.43.096.66.17.25.055.44.096.19.028.41.055t.59.069q.15.15.25.36.096.21.14.41.041.21.014.4-.014.18-.11.29.014.055.069.055.069-.014.14 0-.096.069-.17.17-.069.096-.14.19-.069.096-.17.18-.083.083-.22.096-.5.19-1.3.014-.77-.18-2-.63-.59-.22-.96-.4-.37-.18-.65-.34-.28-.18-.51-.37-.23-.21-.54-.48-.041.014-.055.055 0 .041-.041.055-.069.55-.22.9-.14.34-.41.7-.22-.041-.3.041-.069.083-.18.15-.14.028-.21-.014-.069-.028-.12-.069-.055-.041-.12-.083-.069-.041-.22-.028-.041-.12-.083-.23-.041-.12-.22-.11.041-.12.028-.21-.014-.096-.041-.17-.028-.083-.055-.17-.014-.083.028-.19zm4.6-6.3q-.18.26-.4.48-.22.21-.44.44-.21.22-.37.5-.17.26-.23.63.58-.069 1.2-.32.63-.26 1.2-.5-.069-.51-.36-.81-.29-.32-.61-.43zm5.2 7q-.11-.11-.17-.26-.041-.15-.22-.25-.028-.21-.083-.47-.041-.28-.096-.55-.041-.29-.069-.56-.014-.29.028-.52.028-.12.083-.23.069-.11.12-.21.069-.11.096-.22.041-.11.014-.22.083-.014.096-.083.028-.083.14-.055.096-.3.21-.56.11-.26.23-.51.12-.25.25-.5.14-.26.25-.58-.23-.22-.34-.47-.096-.26-.15-.52-.055-.26-.083-.52-.028-.28-.11-.55.17-.25.4-.4.23-.17.51-.26.29-.11.62-.17.33-.069.7-.15.66-.21 1.2-.32.52-.12 1-.19.5-.083 1-.14.54-.069 1.2-.19.014.041.041.041.041 0 .096 0 .041.096.15.096 0-.041-.014-.069 0-.041 0-.069.028 0 .069.014.055.014.083.028.041.014.069 0 .028-.028.014-.096.17.29.43.48.26.18.58.32.014.12 0 .18 0 .055-.014.11-.014.041-.014.11 0 .055.028.17-.22.37-.51.58-.28.21-.59.32-.32.11-.68.17-.34.055-.72.12-.36.055-.73.17-.37.11-.73.33-.11-.041-.21-.028-.083 0-.18.028-.096.028-.22.055-.11.028-.28 0-.11.096-.26.14-.14.041-.29.083.069.15.055.3 0 .15.041.26.58.055 1.3 0 .7-.069 1.4-.096.014.069-.014.096t-.028.096q.12.083.23.21.11.12.22.25.12.11.25.19.12.069.29.055.069.14.096.29t-.041.32q-.28.18-.54.37-.26.18-.55.33-.28.15-.61.25-.33.096-.72.083-.069 0-.12 0-.041 0-.11-.055-.14.069-.37.055-.22-.028-.37.041-.19-.069-.45-.069-.25 0-.44-.069-.25.36-.47.76-.22.39-.39.83.56.083.94.069t.7-.055.68-.083q.36-.041.87-.028.34-.17.79-.22.45-.069.84-.19.14.041.23.17.096.11.18.23.096.11.19.19.096.083.25.055.069.069.083.17.028.096.041.18.028.083.069.14.041.041.15.028-.26.54-.59.83-.32.29-.73.45-.4.15-.91.23-.5.069-1.1.18-.15.028-.26 0-.096-.041-.21-.041-.39.069-.92.14-.52.069-1.1.055-.54-.014-1-.14-.5-.12-.83-.44zm8.5-5.7q.041-.21.055-.33.014-.14-.096-.29.055-.22.083-.34.041-.12.014-.34.12-.36.37-.61.26-.25.56-.41.3-.18.63-.29.33-.12.62-.21 0-.055-.055-.055t-.028-.069q.74-.14 1.5-.4.76-.26 1.5-.47.79-.21 1.6-.25.83-.055 1.7.21.055.17.15.32.096.15.19.3.11.14.19.28.083.14.096.29.17.15.26.33.11.17.041.45-.15.11-.32.22t-.34.21q-.62-.15-1.2-.11-.62.041-1.1.096-.15-.17-.36-.15-.21 0-.44.069-.22.055-.44.12-.22.055-.41.028-.15.14-.4.19-.25.041-.52.069-.014.069.028.096t.014.11q.096.12.26.18.17.041.33.083.18.041.32.12.14.069.18.23.25.014.43.14.18.11.3.28.12.17.18.36.055.18.041.33.055.14.11.11.069-.028.15.069.055.21.25.44.21.22.32.48.028.41.041.74.028.33-.11.65-.23.61-.68 1.1t-1 .85q-.55.36-1.2.63-.62.26-1.2.44-.055-.014-.14 0-.069.014-.028-.083-.12.11-.29.14-.15.028-.34.014-.18 0-.37-.014-.18-.014-.36.014-.11-.11-.21-.22-.083-.11-.14-.26-.069-.014-.069-.083.014-.083-.055-.083 0-.055.014-.083t.028-.055q.055-.041.041-.055 0-.028-.041-.041-.028-.028-.069-.055-.028-.028-.014-.069.069-.12.041-.29-.014-.18-.028-.36-.014-.18.028-.33.041-.17.23-.28.56.055 1.1-.055.51-.11.95-.3.45-.19.85-.41.41-.23.8-.43.041-.14.12-.23.096-.096.19-.18.096-.096.18-.19.083-.11.12-.26.014-.055 0-.083t-.041-.041q-.028-.028-.055-.055t-.028-.083q-.041-.014-.083-.028-.028-.014-.055-.014-.36-.18-.76-.3-.4-.12-.68-.28-.17.11-.33.055-.17-.055-.4-.11-.58-.028-1.1-.11-.51-.083-.99-.29-.028-.083-.069-.14-.041-.069-.19-.041-.096-.14-.21-.25-.096-.12-.18-.28zm8.5-1.6q-.014-.11-.055-.19-.028-.096-.069-.21-.069-.17-.12-.36-.055-.19-.055-.45.028-.14.069-.19.041-.069.083-.11l.055-.25h.21q.11.014.22.014.12 0 .23 0 .52 0 1.1-.041t1.1-.096q.63-.083 1.4-.12.069-.15.083-.19.028-.041.055-.096l.15-.083q.32-.014.44.083.12.083.19.17.36-.028.73-.069.37-.055.77-.11.55-.069 1.1-.14.56-.069 1.1-.069.23 0 .44.014.21.014.4.041l.17.12q.055.096.14.18.083.083.19.17.21.17.4.41.21.25.15.73l-.069.14q-.055.055-.14.11l-.14.18h-.15q-.14 0-.21.028-.069.014-.17.055-.055.028-.12.055-.069.014-.15.041-.15-.014-.23-.014-.083 0-.19 0-.41 0-.9.055t-.94.12q-.33.041-.63.083-.3.028-.55.055-.14.36-.25.63-.11.28-.23.55t-.23.56q-.11.28-.21.62-.17.25-.28.48-.11.22-.18.51-.21.23-.3.51-.083.28-.15.47l-.055.21q-.096.096-.12.15-.014.055-.069.12-.041.18-.11.34-.028.069-.055.15-.028.069-.014.11-.028.15-.083.23 0 .083-.014.17-.014.083-.028.17-.028.096-.041.18-.014.069.014.14.041.055.083.11.041.055.069.14.028.028.069.041t.069.041q.11.096.21.11l.14.17q.083.5-.15.77-.25.32-.83.32l-.19-.014q-.096-.096-.11-.12-.12-.055-.21-.096-.083-.028-.15-.12-.028-.028-.069-.028-.041-.014-.069-.041-.14-.041-.22-.096l-.15-.083q.014-.14.014-.19-.11-.15-.18-.33-.055-.18-.096-.37-.041-.15-.083-.28-.028-.12-.096-.22-.028-.96.18-1.6.21-.66.45-1.3.14-.33.26-.68t.22-.7l.15-.15q.096-.083.12-.096 0-.18.069-.34.069-.18.15-.36.055-.11.096-.22.055-.11.069-.19-.096 0-.18.014-.069 0-.15.014-.18.041-.34.041-.12 0-.18-.014-.11.055-.21.069-.096 0-.19 0h-.33q-.17 0-.26.041-.19 0-.25 0-.055 0-.12 0h-.33q-.11 0-.25-.014-.14-.028-.29-.11l-.096-.11q-.083-.15-.15-.17l-.15-.041zm9.5.95q-.028-.18-.069-.22.096-.25.14-.48.055-.25.083-.47.028-.19.055-.36.041-.17.096-.32.23-.055.34-.19.12-.15.19-.26.25-.014.32.069.083.083.18.28.069.15.19.33.12.17.37.26.041.15.096.29.055.14.12.29.12.29.23.61.11.3.12.58-.17.32-.26.73-.083.41-.11.84-.014.41.028.8.041.39.14.65l.083.22.3-.028q.5-.12.9-.28.4-.17.74-.39t.66-.5q.32-.29.66-.68.33-.39.59-.87.26-.5.43-1 .18-.52.28-1 .096-.52.12-.98.26-.12.29-.4l-.041-.18q-.041-.069-.041-.12.014-.069.041-.12.11-.32.47-.47.25.17.45.36.22.19.4.39.028.37.11.65.083.26.18.51.096.23.17.45.083.22.11.54-.14.41-.21.79-.055.36-.11.76l-.028.15q-.25.43-.5.88-.23.44-.39.77-.083.083-.15.19-.055.11-.11.22-.028.041-.083.14-.041.096-.083.14l-.33-.12-.083.43-.22.055-.17.19q-.32.55-.68.92-.34.37-.79.66-.43.29-.98.55-.54.25-1.2.54-.28-.041-.48-.041-.19-.014-.39-.028-.19 0-.37-.014-.18-.014-.41-.041-.055-.12-.15-.18-.096-.055-.18-.055-.28-.14-.41-.39-.14-.25-.29-.55-.069-.17-.15-.33-.069-.17-.18-.32l.28-.083-.36-.41q-.041-.041-.096-.083-.041-.041-.083-.096v-.26q-.055-1.1-.055-2.1.014-.96.26-1.7zm12 5.5q-.14.11-.17.29-.028.17-.069.33-.041.17-.15.29-.096.11-.36.096-.055.069-.028.083.041.014.069.12-.19-.028-.28.028-.083.055-.21.083-.32-.096-.54-.34-.21-.26-.37-.56-.15-.3-.28-.62-.11-.32-.23-.55 0-.055.055-.041.041 0 .083 0-.069-.14-.096-.3-.041-.18-.14-.29.4-.85.85-1.8.45-.94.91-1.9.47-.96.92-1.9.47-.98.9-1.9.39.14.74.33.37.18.68.43.3.25.51.58.22.32.29.73-.028.083-.069.055t-.069.028q.069.083.069.12.014.028 0 .069-.014.028-.014.083t.069.15q-.069-.014-.096.028-.028.028-.096 0 .069.19.041.3t-.083.21q-.055.083-.096.19-.028.096.028.28-.055 0-.083.028-.014.014-.028.041t-.041.055q-.014.014-.069 0 .041.36.028.73-.014.36-.028.74-.014.37 0 .77.014.4.11.83.59-.34.95-.9.37-.55.58-1.2.22-.68.33-1.4.12-.77.25-1.6.15-.15.23-.37.096-.22.15-.45.069-.23.12-.47.069-.25.18-.44.25.028.41.15.18.11.33.26.15.14.32.26.17.12.41.17.19.28.36.54.17.25.22.56-.083.14-.12.3-.041.17-.096.33-.041.17-.12.3-.083.14-.23.23-.041.41-.12.77-.083.36-.15.7-.069.34-.12.72-.055.37-.041.81-.12.4-.28.83-.15.41-.22.77-.26.21-.41.51-.15.3-.32.61-.069.055-.083.028-.014-.041-.12-.055.014.12-.055.17-.055.028.014.19-.23.11-.41.29-.18.18-.4.33-.21.15-.5.21-.28.041-.73-.12-.68-.5-1.2-1.1-.54-.65-.85-1.5-.14.041-.21.18t-.12.29q-.055.15-.11.28-.055.12-.17.12-.028.12-.11.23-.069.096-.14.21-.069.096-.11.22-.028.12.041.28zm7.7-6.5q-.014-.11-.055-.19-.028-.096-.069-.21-.069-.17-.12-.36-.055-.19-.055-.45.028-.14.069-.19.041-.069.083-.11l.055-.25h.21q.11.014.22.014.12 0 .23 0 .52 0 1.1-.041.55-.041 1.1-.096.63-.083 1.4-.12.069-.15.083-.19.028-.041.055-.096l.15-.083q.32-.014.44.083.12.083.19.17.36-.028.73-.069.37-.055.77-.11.55-.069 1.1-.14.56-.069 1.1-.069.23 0 .44.014.21.014.4.041l.17.12q.055.096.14.18.083.083.19.17.21.17.4.41.21.25.15.73l-.069.14q-.055.055-.14.11l-.14.18h-.15q-.14 0-.21.028-.069.014-.17.055-.055.028-.12.055-.069.014-.15.041-.15-.014-.23-.014-.083 0-.19 0-.41 0-.9.055-.48.055-.94.12-.33.041-.63.083-.3.028-.55.055-.14.36-.25.63-.11.28-.23.55-.12.28-.23.56-.11.28-.21.62-.17.25-.28.48-.11.22-.18.51-.21.23-.3.51-.083.28-.15.47l-.055.21q-.096.096-.12.15-.014.055-.069.12-.041.18-.11.34-.028.069-.055.15-.028.069-.014.11-.028.15-.083.23 0 .083-.014.17-.014.083-.028.17-.028.096-.041.18-.014.069.014.14.041.055.083.11.041.055.069.14.028.028.069.041t.069.041q.11.096.21.11l.14.17q.083.5-.15.77-.25.32-.83.32l-.19-.014q-.096-.096-.11-.12-.12-.055-.21-.096-.083-.028-.15-.12-.028-.028-.069-.028-.041-.014-.069-.041-.14-.041-.22-.096l-.15-.083q.014-.14.014-.19-.11-.15-.18-.33-.055-.18-.096-.37-.041-.15-.083-.28-.028-.12-.096-.22-.028-.96.18-1.6.21-.66.45-1.3.14-.33.26-.68.12-.34.22-.7l.15-.15q.096-.083.12-.096 0-.18.069-.34.069-.18.15-.36.055-.11.096-.22.055-.11.069-.19-.096 0-.18.014-.069 0-.15.014-.18.041-.34.041-.12 0-.18-.014-.11.055-.21.069-.096 0-.19 0h-.33q-.17 0-.26.041-.19 0-.25 0-.055 0-.12 0h-.33q-.11 0-.25-.014-.14-.028-.29-.11l-.096-.11q-.083-.15-.15-.17l-.15-.041zm8.7 1.6q.041-.21.055-.33.014-.14-.096-.29.055-.22.083-.34.041-.12.014-.34.12-.36.37-.61.26-.25.56-.41.3-.18.63-.29.33-.12.62-.21 0-.055-.055-.055t-.028-.069q.74-.14 1.5-.4.76-.26 1.5-.47.79-.21 1.6-.25.83-.055 1.7.21.055.17.15.32.096.15.19.3.11.14.19.28.083.14.096.29.17.15.26.33.11.17.041.45-.15.11-.32.22-.17.11-.34.21-.62-.15-1.2-.11-.62.041-1.1.096-.15-.17-.36-.15-.21 0-.44.069-.22.055-.44.12-.22.055-.41.028-.15.14-.4.19-.25.041-.52.069-.014.069.028.096.041.028.014.11.096.12.26.18.17.041.33.083.18.041.32.12.14.069.18.23.25.014.43.14.18.11.3.28.12.17.18.36.055.18.041.33.055.14.11.11.069-.028.15.069.055.21.25.44.21.22.32.48.028.41.041.74.028.33-.11.65-.23.61-.68 1.1t-1 .85q-.55.36-1.2.63-.62.26-1.2.44-.055-.014-.14 0-.069.014-.028-.083-.12.11-.29.14-.15.028-.34.014-.18 0-.37-.014-.18-.014-.36.014-.11-.11-.21-.22-.083-.11-.14-.26-.069-.014-.069-.083.014-.083-.055-.083 0-.055.014-.083t.028-.055q.055-.041.041-.055 0-.028-.041-.041-.028-.028-.069-.055-.028-.028-.014-.069.069-.12.041-.29-.014-.18-.028-.36-.014-.18.028-.33.041-.17.23-.28.56.055 1.1-.055.51-.11.95-.3.45-.19.85-.41.41-.23.8-.43.041-.14.12-.23.096-.096.19-.18.096-.096.18-.19.083-.11.12-.26.014-.055 0-.083t-.041-.041q-.028-.028-.055-.055-.028-.028-.028-.083-.041-.014-.083-.028-.028-.014-.055-.014-.36-.18-.76-.3-.4-.12-.68-.28-.17.11-.33.055-.17-.055-.4-.11-.58-.028-1.1-.11-.51-.083-.99-.29-.028-.083-.069-.14-.041-.069-.19-.041-.096-.14-.21-.25-.096-.12-.18-.28z"/>
  </defs>
  <use href="#restunts" fill="black" transform="translate(1,1)" />
  <use href="#restunts" fill="#fcf420" aria-label="RESTUNTS" />
</svg>
